<?xml version="1.0" encoding="UTF-8" standalone="no"?>
<!-- Generator: Adobe Illustrator 16.0.4, SVG Export Plug-In . SVG Version: 6.00 Build 0)  -->

<svg
   xmlns:dc="http://purl.org/dc/elements/1.1/"
   xmlns:cc="http://creativecommons.org/ns#"
   xmlns:rdf="http://www.w3.org/1999/02/22-rdf-syntax-ns#"
   xmlns:svg="http://www.w3.org/2000/svg"
   xmlns="http://www.w3.org/2000/svg"
   xmlns:sodipodi="http://sodipodi.sourceforge.net/DTD/sodipodi-0.dtd"
   xmlns:inkscape="http://www.inkscape.org/namespaces/inkscape"
   version="1.1"
   id="Capa_1"
   x="0px"
   y="0px"
   width="50"
   height="50"
   viewBox="0 0 49.999998 49.999998"
   enable-background="new 0 0 16.061 16.027"
   xml:space="preserve"
   inkscape:version="0.48.4 r9939"
   sodipodi:docname="mute4.svg"><metadata
     id="metadata3006"><rdf:RDF><cc:Work
         rdf:about=""><dc:format>image/svg+xml</dc:format><dc:type
           rdf:resource="http://purl.org/dc/dcmitype/StillImage" /></cc:Work></rdf:RDF></metadata><defs
     id="defs3004" /><sodipodi:namedview
     pagecolor="#ffffff"
     bordercolor="#666666"
     borderopacity="1"
     objecttolerance="10"
     gridtolerance="10"
     guidetolerance="10"
     inkscape:pageopacity="0"
     inkscape:pageshadow="2"
     inkscape:window-width="1280"
     inkscape:window-height="1004"
     id="namedview3002"
     showgrid="false"
     inkscape:zoom="14.725151"
     inkscape:cx="22.072845"
     inkscape:cy="27.028585"
     inkscape:window-x="-3"
     inkscape:window-y="-3"
     inkscape:window-maximized="1"
     inkscape:current-layer="layer13" /><g
     inkscape:groupmode="layer"
     id="layer12"
     inkscape:label="Layer"
     style="display:none"
     transform="translate(0,24.999999)"><rect
       style="fill:#000000;display:inline"
       id="rect3223"
       width="98.012352"
       height="77.949425"
       x="-22.656702"
       y="-30.884556" /></g><g
     inkscape:groupmode="layer"
     id="layer13"
     inkscape:label="Layer#1"
     transform="translate(0,24.999999)"><g
       id="g2996"
       transform="matrix(1.9999687,0,0,1.8750204,8.9999996,-14.999183)"
       style="fill:#ffffff"><path
         d="M 8.292,0.003 C 8.11,-0.014 7.897,0.03 7.646,0.182 c 0,0 -4.17,3.638 -4.352,3.817 H 1 C 0.448,4 0,4.448 0,5 v 6.127 c 0,0.554 0.448,1 1,1 h 2.295 c 0.182,0.181 4.352,3.69 4.352,3.69 0.251,0.151 0.464,0.196 0.646,0.179 0.37,-0.035 0.63,-0.345 0.709,-0.672 C 9.005,15.292 9.005,0.708 9,0.676 8.922,0.348 8.661,0.038 8.292,0.003 z"
         id="path2998"
         inkscape:connector-curvature="0"
         style="fill:#ffffff" /><path
         d="m 14.095,8 1.726,-1.726 c 0.239,-0.238 0.239,-0.625 0,-0.863 -0.238,-0.238 -0.625,-0.238 -0.863,0 L 13.232,7.138 11.505,5.411 c -0.237,-0.238 -0.625,-0.238 -0.862,0 -0.238,0.238 -0.238,0.625 0,0.863 L 12.369,8 10.643,9.727 c -0.238,0.237 -0.238,0.625 0,0.862 0.237,0.238 0.625,0.238 0.862,0 l 1.727,-1.726 1.726,1.726 c 0.238,0.238 0.625,0.238 0.863,0 0.238,-0.237 0.238,-0.625 0,-0.862 L 14.095,8 z"
         id="path3000"
         inkscape:connector-curvature="0"
         style="fill:#ffffff" /></g></g><g
     inkscape:groupmode="layer"
     id="layer14"
     inkscape:label="Layer#2"
     style="display:inline"
     transform="translate(0,24.999999)"><path
       sodipodi:type="arc"
       style="fill:none;stroke:#ffffff;display:inline"
       id="path3122"
       sodipodi:cx="14"
       sodipodi:cy="14"
       sodipodi:rx="13"
       sodipodi:ry="13"
       d="M 27,14 A 13,13 0 1 1 1,14 13,13 0 1 1 27,14 z"
       transform="matrix(1.8518517,0,0,1.8518518,-0.92592588,-25.925927)" /></g></svg>