<?xml version="1.0" encoding="UTF-8" standalone="no"?>
<!-- Generator: Adobe Illustrator 16.0.0, SVG Export Plug-In . SVG Version: 6.00 Build 0)  -->

<svg
   xmlns:dc="http://purl.org/dc/elements/1.1/"
   xmlns:cc="http://creativecommons.org/ns#"
   xmlns:rdf="http://www.w3.org/1999/02/22-rdf-syntax-ns#"
   xmlns:svg="http://www.w3.org/2000/svg"
   xmlns="http://www.w3.org/2000/svg"
   xmlns:sodipodi="http://sodipodi.sourceforge.net/DTD/sodipodi-0.dtd"
   xmlns:inkscape="http://www.inkscape.org/namespaces/inkscape"
   version="1.1"
   x="0px"
   y="0px"
   width="50"
   height="50"
   viewBox="0 0 50.000002 50.000002"
   xml:space="preserve"
   id="svg3019"
   inkscape:version="0.48.4 r9939"
   sodipodi:docname="raise.svg"><metadata
     id="metadata3033"><rdf:RDF><cc:Work
         rdf:about=""><dc:format>image/svg+xml</dc:format><dc:type
           rdf:resource="http://purl.org/dc/dcmitype/StillImage" /></cc:Work></rdf:RDF></metadata><defs
     id="defs3031" /><sodipodi:namedview
     pagecolor="#ffffff"
     bordercolor="#666666"
     borderopacity="1"
     objecttolerance="10"
     gridtolerance="10"
     guidetolerance="10"
     inkscape:pageopacity="0"
     inkscape:pageshadow="2"
     inkscape:window-width="1280"
     inkscape:window-height="1004"
     id="namedview3029"
     showgrid="false"
     inkscape:zoom="9.6063828"
     inkscape:cx="26.408549"
     inkscape:cy="12.909541"
     inkscape:window-x="-3"
     inkscape:window-y="-3"
     inkscape:window-maximized="1"
     inkscape:current-layer="layer16"
     showborder="false" /><g
     id="Capa_1"
     transform="translate(0,25.433002)" /><g
     inkscape:groupmode="layer"
     id="layer15"
     inkscape:label="Layer"
     style="display:none"
     transform="translate(0,25.000001)"><rect
       style="fill:#000000;display:inline"
       id="rect3223"
       width="98.01236"
       height="77.949425"
       x="-48.732399"
       y="-26.258211" /></g><g
     inkscape:groupmode="layer"
     id="layer16"
     inkscape:label="Layer#1"
     transform="translate(0,25.000001)"
     style="display:inline"><g
       id="c74_volume"
       transform="matrix(1.262763,0,0,1.2211002,7.5000003,-14.998901)"
       style="fill:#ffffff"><path
         style="fill:#ffffff"
         d="M 4.637,7.15 H 0 v 10.33 h 4.637 l 8.766,6.502 c 0,0 1.611,1.346 1.611,-0.045 0,-1.395 0,-22.177 0,-23.446 0,-1.092 -1.418,-0.025 -1.418,-0.025 L 4.637,7.15 z"
         id="path3022"
         inkscape:connector-curvature="0" /><path
         style="fill:#ffffff"
         d="m 20.006,5.134 c -0.461,-0.46 -1.207,-0.46 -1.668,0 -0.461,0.462 -0.461,1.211 0,1.666 1.518,1.521 2.27,3.495 2.273,5.484 -0.004,1.993 -0.756,3.979 -2.273,5.495 -0.461,0.459 -0.461,1.211 0,1.672 0.23,0.23 0.531,0.344 0.836,0.344 0.301,0 0.602,-0.113 0.832,-0.344 1.977,-1.979 2.965,-4.578 2.963,-7.167 0.002,-2.586 -0.989,-5.177 -2.963,-7.15 z"
         id="path3024"
         inkscape:connector-curvature="0" /><path
         style="fill:#ffffff"
         d="m 23.207,1.419 c -0.467,-0.463 -1.211,-0.463 -1.676,0 -0.457,0.463 -0.457,1.208 0,1.671 2.549,2.548 3.822,5.869 3.824,9.206 -0.002,3.352 -1.27,6.694 -3.824,9.25 -0.459,0.461 -0.457,1.207 0,1.67 0.232,0.229 0.537,0.344 0.838,0.344 0.303,0 0.607,-0.115 0.838,-0.344 3.006,-3.018 4.51,-6.973 4.51,-10.92 0,-3.934 -1.514,-7.875 -4.51,-10.877 z"
         id="path3026"
         inkscape:connector-curvature="0" /></g></g><g
     inkscape:groupmode="layer"
     id="layer17"
     inkscape:label="Layer#2"
     transform="translate(0,25.000001)"><path
       sodipodi:type="arc"
       style="fill:none;stroke:#ffffff;display:inline"
       id="path3122"
       sodipodi:cx="14"
       sodipodi:cy="14"
       sodipodi:rx="13"
       sodipodi:ry="13"
       d="M 27,14 A 13,13 0 1 1 1,14 13,13 0 1 1 27,14 z"
       transform="matrix(1.8518519,0,0,1.8518519,-0.92592595,-25.925928)" /></g></svg>