<?xml version="1.0" encoding="UTF-8" standalone="no"?>
<!-- Generator: Adobe Illustrator 16.0.0, SVG Export Plug-In . SVG Version: 6.00 Build 0)  -->

<svg
   xmlns:dc="http://purl.org/dc/elements/1.1/"
   xmlns:cc="http://creativecommons.org/ns#"
   xmlns:rdf="http://www.w3.org/1999/02/22-rdf-syntax-ns#"
   xmlns:svg="http://www.w3.org/2000/svg"
   xmlns="http://www.w3.org/2000/svg"
   xmlns:sodipodi="http://sodipodi.sourceforge.net/DTD/sodipodi-0.dtd"
   xmlns:inkscape="http://www.inkscape.org/namespaces/inkscape"
   version="1.1"
   x="0px"
   y="0px"
   width="50"
   height="50"
   viewBox="0 0 49.999998 49.999998"
   xml:space="preserve"
   id="svg2"
   inkscape:version="0.48.4 r9939"
   sodipodi:docname="expand.svg"><metadata
     id="metadata18"><rdf:RDF><cc:Work
         rdf:about=""><dc:format>image/svg+xml</dc:format><dc:type
           rdf:resource="http://purl.org/dc/dcmitype/StillImage" /></cc:Work></rdf:RDF></metadata><defs
     id="defs16" /><sodipodi:namedview
     pagecolor="#ffffff"
     bordercolor="#666666"
     borderopacity="1"
     objecttolerance="10"
     gridtolerance="10"
     guidetolerance="10"
     inkscape:pageopacity="0"
     inkscape:pageshadow="2"
     inkscape:window-width="1280"
     inkscape:window-height="1004"
     id="namedview14"
     showgrid="false"
     inkscape:zoom="6.0808656"
     inkscape:cx="1.6900496"
     inkscape:cy="25.002658"
     inkscape:window-x="-3"
     inkscape:window-y="-3"
     inkscape:window-maximized="1"
     inkscape:current-layer="layer5" /><g
     id="Capa_1"
     transform="translate(0,22.556998)" /><g
     inkscape:groupmode="layer"
     id="layer6"
     inkscape:label="Layer#2"
     style="display:none"
     transform="translate(0,24.999999)"><rect
       style="fill:#000000"
       id="rect3223"
       width="98.01236"
       height="77.949425"
       x="-47.690578"
       y="-28.93969" /></g><g
     inkscape:groupmode="layer"
     id="layer4"
     inkscape:label="Layer"
     style="display:inline"
     transform="translate(0,24.999999)"><path
       sodipodi:type="arc"
       style="fill:none;stroke:#ffffff"
       id="path3122"
       sodipodi:cx="14"
       sodipodi:cy="14"
       sodipodi:rx="13"
       sodipodi:ry="13"
       d="M 27,14 A 13,13 0 1 1 1,14 13,13 0 1 1 27,14 z"
       transform="matrix(1.8518517,0,0,1.8518518,-0.92592543,-25.925925)" /></g><g
     inkscape:groupmode="layer"
     id="layer5"
     inkscape:label="Layer#1"
     transform="translate(0,24.999999)"><path
       style="fill:#ffffff"
       d="m 27.840358,-2.4101173 c -0.364642,-0.3510368 -0.478325,-0.7172525 -0.383817,-1.2364221 0.05598,-0.3074873 0.537313,-0.8492057 2.842193,-3.1987326 1.526143,-1.5557057 2.774807,-2.8687222 2.774807,-2.9178152 0,-0.04909 -0.72031,-0.08926 -1.60069,-0.08926 -1.211894,0 -1.67225,-0.03813 -1.89531,-0.1570108 -0.782827,-0.417188 -0.980627,-1.36625 -0.407784,-1.956599 0.174233,-0.179551 0.440584,-0.362246 0.591907,-0.405986 0.151319,-0.04375 1.737965,-0.07953 3.525872,-0.07953 l 3.25074,0 0.384307,0.302163 c 0.21137,0.16619 0.427754,0.419927 0.480856,0.563861 0.05309,0.143935 0.09656,1.7647418 0.09656,3.6017938 0,3.6215622 -0.01235,3.71031 -0.577997,4.1688854 -0.181613,0.147224 -0.422878,0.2215401 -0.719211,0.2215401 -0.369492,0 -0.505646,-0.061543 -0.794414,-0.3591483 -0.436004,-0.4493239 -0.481897,-0.6914511 -0.481897,-2.5424493 l 0,-1.4959484 -2.860838,2.9413806 -2.860836,2.9413811 -0.525314,0 c -0.435346,0 -0.579058,-0.051738 -0.839126,-0.3021036 z"
       id="path3210"
       inkscape:connector-curvature="0" /><path
       style="fill:#ffffff"
       d="m 29.883734,12.456545 c -0.329001,-0.06686 -0.793118,-0.40782 -0.939943,-0.690549 -0.160888,-0.30983 -0.133107,-0.99246 0.05147,-1.264024 C 29.377491,9.9395822 29.605487,9.8812407 31.424,9.8804922 L 33.120024,9.8797905 30.32438,6.9889273 C 28.478297,5.0799665 27.504613,3.9970166 27.457716,3.8005654 27.210076,2.763248 28.036573,1.8810381 29.003697,2.1503699 c 0.205682,0.057295 1.220499,1.0278586 3.113949,2.9782155 l 2.80883,2.8932415 0,-1.4977526 c 0,-1.852904 0.04582,-2.0948623 0.481889,-2.5442538 0.281655,-0.2902609 0.428707,-0.3591464 0.76668,-0.3591464 0.230002,0 0.551972,0.081453 0.71549,0.1809804 0.585085,0.3561806 0.609455,0.5270883 0.609455,4.2743168 0,3.7697777 -0.004,3.7952727 -0.657332,4.2029067 -0.294332,0.183638 -0.582107,0.201244 -3.51176,0.214851 -1.755137,0.0083 -3.306359,-0.0086 -3.44716,-0.0372 z"
       id="path3212"
       inkscape:connector-curvature="0" /><path
       style="fill:#ffffff"
       d="M 13.527061,12.428959 C 13.335619,12.380519 13.034518,12.192064 12.857947,12.01017 L 12.53691,11.679454 12.50704,8.2127282 c -0.02126,-2.4687835 0.0047,-3.5529665 0.09056,-3.7663201 0.428039,-1.0649641 1.79086,-1.111607 2.30899,-0.079039 0.115641,0.2304655 0.152354,0.707324 0.152354,1.9790364 l 0,1.6754096 2.812529,-2.8970512 c 2.235675,-2.3028606 2.884905,-2.9136056 3.16542,-2.9777701 0.861079,-0.196964 1.536709,0.3709497 1.536709,1.2917115 l 0,0.5443725 -2.779393,2.8713001 c -1.528667,1.5792142 -2.779394,2.905973 -2.779394,2.9483514 0,0.042383 0.724122,0.077056 1.609163,0.077056 1.433689,0 1.645775,0.023314 1.944911,0.2138437 0.331639,0.21123 0.666487,0.767404 0.666487,1.107019 0,0.303668 -0.293431,0.775114 -0.641825,1.031204 -0.333074,0.244826 -0.364923,0.247231 -3.527265,0.266113 -1.755136,0.01048 -3.34779,-0.02058 -3.539232,-0.06901 z"
       id="path3214"
       inkscape:connector-curvature="0" /><path
       style="fill:#ffffff"
       d="m 21.040101,-2.1164641 c -0.278325,-0.061462 -0.92433,-0.6691275 -3.16542,-2.9775684 l -2.81573,-2.9003482 0,1.6754107 c 0,1.2717119 -0.03671,1.7485726 -0.152353,1.9790378 -0.518131,1.0325775 -1.880951,0.9859328 -2.308989,-0.079034 -0.08577,-0.2133931 -0.111829,-1.299952 -0.09056,-3.7764969 l 0.02987,-3.4769059 0.374918,-0.353967 c 0.498377,-0.470525 0.806335,-0.502627 4.411815,-0.459902 2.880771,0.03414 2.939881,0.03923 3.269916,0.281825 0.348393,0.256088 0.641824,0.727535 0.641824,1.031202 0,0.339615 -0.334848,0.895789 -0.666486,1.107019 -0.299136,0.1905265 -0.511222,0.2138455 -1.944912,0.2138455 -0.885041,0 -1.609163,0.03468 -1.609163,0.07706 0,0.04238 1.250727,1.3691367 2.779395,2.9483515 l 2.779393,2.8713 0,0.5508377 c 0,0.4521457 -0.05071,0.6085183 -0.283086,0.8727697 -0.333448,0.3792074 -0.765236,0.522708 -1.250423,0.41557 z"
       id="path3216"
       inkscape:connector-curvature="0" /></g></svg>