<?xml version="1.0" encoding="UTF-8" standalone="no"?>
<!-- Generator: Adobe Illustrator 16.0.4, SVG Export Plug-In . SVG Version: 6.00 Build 0)  -->

<svg
   xmlns:dc="http://purl.org/dc/elements/1.1/"
   xmlns:cc="http://creativecommons.org/ns#"
   xmlns:rdf="http://www.w3.org/1999/02/22-rdf-syntax-ns#"
   xmlns:svg="http://www.w3.org/2000/svg"
   xmlns="http://www.w3.org/2000/svg"
   xmlns:sodipodi="http://sodipodi.sourceforge.net/DTD/sodipodi-0.dtd"
   xmlns:inkscape="http://www.inkscape.org/namespaces/inkscape"
   version="1.1"
   id="Capa_1"
   x="0px"
   y="0px"
   width="50"
   height="50"
   viewBox="0 0 50 50"
   enable-background="new 0 0 16 16"
   xml:space="preserve"
   inkscape:version="0.48.4 r9939"
   sodipodi:docname="two23.svg"><metadata
     id="metadata3046"><rdf:RDF><cc:Work
         rdf:about=""><dc:format>image/svg+xml</dc:format><dc:type
           rdf:resource="http://purl.org/dc/dcmitype/StillImage" /></cc:Work></rdf:RDF></metadata><defs
     id="defs3044" /><sodipodi:namedview
     pagecolor="#ffffff"
     bordercolor="#666666"
     borderopacity="1"
     objecttolerance="10"
     gridtolerance="10"
     guidetolerance="10"
     inkscape:pageopacity="0"
     inkscape:pageshadow="2"
     inkscape:window-width="1280"
     inkscape:window-height="1004"
     id="namedview3042"
     showgrid="false"
     inkscape:zoom="14.75"
     inkscape:cx="25.586293"
     inkscape:cy="24.271186"
     inkscape:window-x="-3"
     inkscape:window-y="-3"
     inkscape:window-maximized="1"
     inkscape:current-layer="layer11" /><g
     inkscape:groupmode="layer"
     id="layer10"
     inkscape:label="Layer"
     style="display:none"
     transform="translate(0,25)"><rect
       style="fill:#000000;display:inline"
       id="rect3223"
       width="98.01236"
       height="77.949425"
       x="-49.853638"
       y="-21.974712" /></g><g
     inkscape:groupmode="layer"
     id="layer11"
     inkscape:label="Layer#1"
     style="display:inline"
     transform="translate(0,25)"><path
       style="fill:#ffffff;stroke:none"
       d="m 30.912108,9.6378788 c -1.946084,-0.9569717 -1.965325,-1.0539663 -1.965325,-9.90928337 0,-8.85531523 0.01909,-8.95231073 1.965325,-9.90928143 1.721638,-0.846598 3.429786,-0.380998 4.43452,1.2087359 0.449494,0.7112134 0.47887,1.2449462 0.47887,8.70054553 0,7.45560097 -0.02936,7.98933487 -0.47887,8.70054657 -1.004734,1.589734 -2.712882,2.055335 -4.43452,1.2087368 z"
       id="path3347"
       inkscape:connector-curvature="0" /><path
       style="fill:#ffffff"
       d="M 16.412188,9.6378788 C 14.466097,8.6809071 14.44686,8.5839125 14.44686,-0.27140457 c 0,-8.85531523 0.01923,-8.95231073 1.965328,-9.90928143 1.721637,-0.846598 3.429785,-0.380998 4.434519,1.2087359 0.449492,0.7112134 0.47887,1.2449462 0.47887,8.70054553 0,7.45560097 -0.02936,7.98933487 -0.47887,8.70054657 -1.004734,1.589734 -2.712882,2.055335 -4.434519,1.2087368 z"
       id="path3349"
       inkscape:connector-curvature="0" /><path
       sodipodi:type="arc"
       style="fill:none;stroke:#ffffff;display:inline"
       id="path3122"
       sodipodi:cx="14"
       sodipodi:cy="14"
       sodipodi:rx="13"
       sodipodi:ry="13"
       d="M 27,14 A 13,13 0 1 1 1,14 13,13 0 1 1 27,14 z"
       transform="matrix(1.8518518,0,0,1.8518519,-0.92592593,-25.925925)" /></g></svg>