<?xml version="1.0" encoding="UTF-8" standalone="no"?>
<!-- Generator: Adobe Illustrator 15.0.0, SVG Export Plug-In . SVG Version: 6.00 Build 0)  -->

<svg
   xmlns:dc="http://purl.org/dc/elements/1.1/"
   xmlns:cc="http://creativecommons.org/ns#"
   xmlns:rdf="http://www.w3.org/1999/02/22-rdf-syntax-ns#"
   xmlns:svg="http://www.w3.org/2000/svg"
   xmlns="http://www.w3.org/2000/svg"
   xmlns:sodipodi="http://sodipodi.sourceforge.net/DTD/sodipodi-0.dtd"
   xmlns:inkscape="http://www.inkscape.org/namespaces/inkscape"
   version="1.1"
   id="Layer_1"
   x="0px"
   y="0px"
   width="50"
   height="50"
   viewBox="0 0 50 50"
   enable-background="new 0 0 26 26"
   xml:space="preserve"
   inkscape:version="0.48.4 r9939"
   sodipodi:docname="play.svg"><metadata
     id="metadata3017"><rdf:RDF><cc:Work
         rdf:about=""><dc:format>image/svg+xml</dc:format><dc:type
           rdf:resource="http://purl.org/dc/dcmitype/StillImage" /></cc:Work></rdf:RDF></metadata><defs
     id="defs3015" /><sodipodi:namedview
     pagecolor="#ffffff"
     bordercolor="#666666"
     borderopacity="1"
     objecttolerance="10"
     gridtolerance="10"
     guidetolerance="10"
     inkscape:pageopacity="0"
     inkscape:pageshadow="2"
     inkscape:window-width="1280"
     inkscape:window-height="1004"
     id="namedview3013"
     showgrid="false"
     inkscape:zoom="9.0769231"
     inkscape:cx="-1.3758708"
     inkscape:cy="12.986865"
     inkscape:window-x="-3"
     inkscape:window-y="-3"
     inkscape:window-maximized="1"
     inkscape:current-layer="layer8" /><g
     inkscape:groupmode="layer"
     id="layer9"
     inkscape:label="Layer#2"
     style="display:none"
     transform="translate(0,25)"><rect
       style="fill:#000000;display:inline"
       id="rect3223"
       width="98.01236"
       height="77.949425"
       x="-13.421434"
       y="-40.635731" /></g><g
     inkscape:groupmode="layer"
     id="layer7"
     inkscape:label="Layer"
     style="display:inline"
     transform="translate(0,25)"><path
       sodipodi:type="arc"
       style="fill:none;stroke:#ffffff;display:inline"
       id="path3122"
       sodipodi:cx="14"
       sodipodi:cy="14"
       sodipodi:rx="13"
       sodipodi:ry="13"
       d="M 27,14 A 13,13 0 1 1 1,14 13,13 0 1 1 27,14 z"
       transform="matrix(1.8518518,0,0,1.8518519,-0.92592591,-25.925926)" /></g><g
     inkscape:groupmode="layer"
     id="layer8"
     inkscape:label="Layer#1"
     transform="translate(0,25)"><g
       id="g3009"
       transform="matrix(2.3415596,0,0,1.9664659,-6.2868102,-25.564467)"
       style="fill:#ffffff"><path
         d="m 9.945,18.257 c 0,-0.001 0,-0.002 0,-0.003 V 7.744 c 0,-0.135 0.107,-0.257 0.271,-0.31 C 10.38,7.38 10.57,7.407 10.699,7.5 l 7.229,5.255 c 0.175,0.127 0.175,0.36 0,0.487 l -7.193,5.229 c -0.081,0.074 -0.205,0.123 -0.344,0.123 -0.246,0 -0.446,-0.151 -0.446,-0.337 z"
         id="path3011"
         inkscape:connector-curvature="0"
         style="fill:#ffffff" /></g></g></svg>