<?xml version="1.0" encoding="UTF-8" standalone="no"?>
<!-- Generator: Adobe Illustrator 16.0.0, SVG Export Plug-In . SVG Version: 6.00 Build 0)  -->

<svg
   xmlns:dc="http://purl.org/dc/elements/1.1/"
   xmlns:cc="http://creativecommons.org/ns#"
   xmlns:rdf="http://www.w3.org/1999/02/22-rdf-syntax-ns#"
   xmlns:svg="http://www.w3.org/2000/svg"
   xmlns="http://www.w3.org/2000/svg"
   xmlns:sodipodi="http://sodipodi.sourceforge.net/DTD/sodipodi-0.dtd"
   xmlns:inkscape="http://www.inkscape.org/namespaces/inkscape"
   version="1.1"
   id="Capa_1"
   x="0px"
   y="0px"
   width="50"
   height="50"
   viewBox="0 0 50.000002 49.999998"
   xml:space="preserve"
   inkscape:version="0.48.4 r9939"
   sodipodi:docname="window5.svg"><metadata
     id="metadata3085"><rdf:RDF><cc:Work
         rdf:about=""><dc:format>image/svg+xml</dc:format><dc:type
           rdf:resource="http://purl.org/dc/dcmitype/StillImage" /></cc:Work></rdf:RDF></metadata><defs
     id="defs3083" /><sodipodi:namedview
     pagecolor="#000000"
     bordercolor="#666666"
     borderopacity="1"
     objecttolerance="10"
     gridtolerance="10"
     guidetolerance="10"
     inkscape:pageopacity="0"
     inkscape:pageshadow="2"
     inkscape:window-width="1280"
     inkscape:window-height="1004"
     id="namedview3081"
     showgrid="true"
     inkscape:snap-global="true"
     inkscape:snap-page="false"
     inkscape:snap-grids="true"
     inkscape:snap-to-guides="true"
     inkscape:zoom="11.871466"
     inkscape:cx="15.483579"
     inkscape:cy="21.507104"
     inkscape:window-x="-3"
     inkscape:window-y="-3"
     inkscape:window-maximized="1"
     inkscape:current-layer="layer1"><inkscape:grid
       type="xygrid"
       id="grid3094"
       empspacing="5"
       visible="true"
       enabled="true"
       snapvisiblegridlinesonly="true" /></sodipodi:namedview><g
     id="g3051"
     transform="translate(0,35.943)" /><g
     id="g3053"
     transform="translate(0,35.943)" /><g
     id="g3055"
     transform="translate(0,35.943)" /><g
     id="g3057"
     transform="translate(0,35.943)" /><g
     id="g3059"
     transform="translate(0,35.943)" /><g
     id="g3061"
     transform="translate(0,35.943)" /><g
     id="g3063"
     transform="translate(0,35.943)" /><g
     id="g3065"
     transform="translate(0,35.943)" /><g
     id="g3067"
     transform="translate(0,35.943)" /><g
     id="g3069"
     transform="translate(0,35.943)" /><g
     id="g3071"
     transform="translate(0,35.943)" /><g
     id="g3073"
     transform="translate(0,35.943)" /><g
     id="g3075"
     transform="translate(0,35.943)" /><g
     id="g3077"
     transform="translate(0,35.943)" /><g
     id="g3079"
     transform="translate(0,35.943)" /><g
     inkscape:groupmode="layer"
     id="layer2"
     inkscape:label="Layer#1"
     style="display:none"
     transform="translate(0,35.943)"><rect
       style="fill:#000000;stroke:#ffffff;stroke-width:1"
       id="rect3099"
       width="99.312691"
       height="71.273064"
       x="-29.48138"
       y="-39.189648" /></g><g
     inkscape:groupmode="layer"
     id="layer1"
     inkscape:label="Layer"
     style="display:inline"
     transform="translate(0,35.943)"><path
       style="fill:#ffffff;fill-rule:evenodd"
       d="M 37.856231,-23.443002 H 12.143772 c -1.187125,0 -2.143772,0.93014 -2.143772,2.080815 v 20.83659407 c 0,1.14889377 0.956647,2.08259243 2.143772,2.08259243 h 25.712459 c 1.181635,0 2.14377,-0.93192007 2.14377,-2.08259243 V -21.362187 c 0,-1.150675 -0.962135,-2.080815 -2.14377,-2.080815 z m -17.605636,1.565057 c 0.587158,0 1.06274,0.464181 1.06274,1.040407 0,0.578003 -0.475582,1.038628 -1.06274,1.038628 -0.594477,0 -1.075546,-0.460625 -1.075546,-1.038628 -0.0018,-0.576226 0.47924,-1.040407 1.075546,-1.040407 z m -3.285166,0 c 0.587159,0 1.075544,0.464181 1.075544,1.040407 0,0.578003 -0.488385,1.038628 -1.075544,1.038628 -0.592647,0 -1.075544,-0.460625 -1.075544,-1.038628 -0.0018,-0.576226 0.481066,-1.040407 1.075544,-1.040407 z m -3.219318,0 c 0.596307,0 1.075545,0.464181 1.075545,1.040407 0,0.578003 -0.479238,1.038628 -1.075545,1.038628 -0.588987,0 -1.068227,-0.460625 -1.068227,-1.038628 -0.0018,-0.576226 0.47924,-1.040407 1.068227,-1.040407 z m 24.11012,21.35235207 H 12.143772 V -18.212512 h 25.712459 v 17.68691907 z m 0,-19.76951207 H 22.853483 v -1.038628 h 15.002748 v 1.038628 z"
       id="path3049"
       inkscape:connector-curvature="0" /></g><g
     inkscape:groupmode="layer"
     id="layer3"
     inkscape:label="Layer#2"
     transform="translate(0,25.000001)"><path
       sodipodi:type="arc"
       style="fill:none;stroke:#ffffff"
       id="path3122"
       sodipodi:cx="14"
       sodipodi:cy="14"
       sodipodi:rx="13"
       sodipodi:ry="13"
       d="M 27,14 A 13,13 0 1 1 1,14 13,13 0 1 1 27,14 z"
       transform="matrix(1.8518519,0,0,1.8518519,-0.92592595,-25.925928)" /></g></svg>